<svg xmlns="http://www.w3.org/2000/svg" width="256" height="262" viewBox="0 0 256 262">
  <path fill="#4285F4" d="M255.1 133.5c0-11.1-.9-19.2-2.8-27.6H130.7v50.1h71.8c-1.4 12.4-9 31-26 43.5l-.2 1.6 37.7 29.3 2.6.3c24-22.2 38.5-54.9 38.5-97.2"></path>
  <path fill="#34A853" d="M130.7 261.1c34.5 0 63.4-11.3 84.5-30.7l-40.2-31.2c-10.8 7.5-25.4 12.7-44.3 12.7-33.8 0-62.5-22.2-72.7-52.6l-1.5.1-39.3 30.3-.5 1.4c20.8 41.5 63.5 69.9 114 69.9"></path>
  <path fill="#FBBC05" d="M58 160.1c-2.7-8.4-4.3-17.4-4.3-26.7 0-9.3 1.6-18.3 4.2-26.7l-.1-1.8L18 73.9l-1.3.6C6 95.9 0 120.1 0 133.4c0 13.2 6 37.4 16.7 59.7l41.3-33"></path>
  <path fill="#EA4335" d="M130.7 51.8c24 0 40.1 10.4 49.3 19.1L215 37.1C194 18.3 165.2 5 130.7 5 80.3 5 37.6 33.4 16.7 73.8L58 107c10.3-30.4 38.9-55.2 72.7-55.2"></path>
</svg>
